<?xml version="1.0" standalone="no"?> <!DOCTYPE svg PUBLIC "-//W3C//DTD SVG 1.0//EN" "http://www.w3.org/TR/2001/REC-SVG-20010904/DTD/svg10.dtd" > <svg xmlns="http://www.w3.org/2000/svg" width="100%" height="100%">
<defs >
<font horiz-adv-x="320" ><font-face
    font-family="Asgalt"
    units-per-em="1067"
    panose-1="2 0 5 3 0 0 0 0 0 0"
    ascent="667"
    descent="-198"
    alphabetic="0" />
<missing-glyph horiz-adv-x="386" d="M35 0V667H316V0H35ZM70 35H281V632H70V35Z" />
<glyph unicode=" " glyph-name="space" horiz-adv-x="310" />
<glyph unicode="!" glyph-name="exclam" horiz-adv-x="103" d="M0 100V527H33V100H0ZM0 1V50H33V1H0Z" />
<glyph unicode="&quot;" glyph-name="quotedbl" horiz-adv-x="169" d="M0 429V528H33V429H0ZM66 429V528H99V429H66Z" />
<glyph unicode="#" glyph-name="numbersign" horiz-adv-x="465" d="M395 527L316 346H394L379 313H301L265 231H343L329 198H251L164 1H129L215 198H122L36 1H0L86 198H6L21 231H101L137 313H57L71 346H151L230 527H266L187 346H280L359 527H395ZM229 231L265
313H173L137 231H229Z" />
<glyph unicode="$" glyph-name="dollar" horiz-adv-x="399" d="M197 279Q253 276 291 236T329 140T291 44T197 0H0V32H189Q233 32 264 63T296 139T265 215T189 246H132V247Q76 250 38 290T0 386T38 482T132 526H329V493H140Q96 493 65 462T33 386T64 311T140 279H197ZM88
-50V575H121V-50H88ZM208 -50V575H241V-50H208Z" />
<glyph unicode="%" glyph-name="percent" horiz-adv-x="336" d="M230 527H266L36 1H0L230 527ZM170 133T197 133T244 114T263 67T244 20T198 1T151 20T132 66T151 113ZM184 34T197 34T220 43T230 66T221 90T198 100T174 90T164 67T174 44ZM39 527T66 527T112 508T132
462T113 415T66 396T20 415T0 461T19 508ZM52 429T65 429T89 438T99 461T89 484T66 494T43 485T33 462T42 439Z" />
<glyph unicode="&apos;" glyph-name="quotesingle" horiz-adv-x="103" d="M0 428V526H33V428H0Z" />
<glyph unicode="(" glyph-name="parenleft" horiz-adv-x="179" d="M109 0H70Q0 122 0 263T70 526H109Q33 406 33 263T109 0Z" />
<glyph unicode=")" glyph-name="parenright" horiz-adv-x="179" d="M0 0Q76 120 76 263T0 526H38Q109 405 109 264T38 0H0Z" />
<glyph unicode="*" glyph-name="asterisk" horiz-adv-x="333" d="M263 411V378H171L236 313L213 290L148 355V263H115V355L50 290L27 313L92 378H0V411H92L27 476L50 499L115 434V526H148V434L213 499L236 476L171 411H263Z" />
<glyph unicode="+" glyph-name="plus" horiz-adv-x="333" d="M263 213V180H148V65H115V180H0V213H115V328H148V213H263Z" />
<glyph unicode="," glyph-name="comma" horiz-adv-x="131" d="M34 -80H0L27 51H61L34 -80Z" />
<glyph unicode="-" glyph-name="hyphen" horiz-adv-x="333" d="M0 178V211H263V178H0Z" />
<glyph unicode="." glyph-name="period" horiz-adv-x="119" d="M0 2T0 26T24 51T49 27T25 2Z" />
<glyph unicode="/" glyph-name="slash" horiz-adv-x="336" d="M230 526H266L36 0H0L230 526Z" />
<glyph unicode="0" glyph-name="zero" horiz-adv-x="333" d="M77 526T131 526T224 488T263 395V132Q263 77 225 39T132 0T39 38T0 132V395Q0 449 38 487ZM91 33T131 33T201 62T230 132V395Q230 436 201 464T132 493T62 465T33 395V132Q33 91 62 62Z" />
<glyph unicode="1" glyph-name="one" horiz-adv-x="333" d="M47 263H0L263 526V480V0H230V447L47 263Z" />
<glyph unicode="2" glyph-name="two" horiz-adv-x="333" d="M243 325L60 33H263V0H99H39H0L145 231L169 269L215 342Q237 377 228 417T184 478T110 491T48 447Q33 423 33 395H0Q0 433 20 465Q49 511 102 523T201 506T260 424T243 325Z" />
<glyph unicode="3" glyph-name="three" horiz-adv-x="333" d="M263 378Q263 342 245 311T195 263Q226 246 244 216T263 148V132Q263 77 225 39T132 0T39 38T0 132H33Q33 91 62 62T131 33T201 62T230 132V148Q230 189 201 218T132 247V280Q172 280 201 308T230
378V395Q230 436 201 464T132 493T62 465T33 395H0Q0 449 38 487T131 526T224 488T263 395V378Z" />
<glyph unicode="4" glyph-name="four" horiz-adv-x="333" d="M263 467L61 164H230V263H263V0H230V132H0L263 526V467Z" />
<glyph unicode="5" glyph-name="five" horiz-adv-x="333" d="M263 493H33V296H132Q186 296 224 258T263 164V132Q263 77 225 39T132 0T39 38T0 132H33Q33 91 62 62T131 33T201 62T230 132V164Q230 205 201 234T132 263H0V526H263V493Z" />
<glyph unicode="6" glyph-name="six" horiz-adv-x="333" d="M186 0T132 0T39 38T0 132V395Q0 449 38 487T131 526T224 488T263 395H230Q230 436 201 464T132 493T62 465T33 395V284Q72 329 132 329Q186 329 224 291T263 197V132Q263 77 225 39ZM172 296T132 296T62
267T33 197V132Q33 91 62 62T131 33T201 62T230 132V197Q230 238 201 267Z" />
<glyph unicode="7" glyph-name="seven" horiz-adv-x="333" d="M0 526H263L36 0H0L213 493H0V526Z" />
<glyph unicode="8" glyph-name="eight" horiz-adv-x="333" d="M263 378Q263 342 245 311T195 263Q226 246 244 216T263 148V132Q263 77 225 39T132 0T39 38T0 132V148Q0 185 18 215T68 263Q37 280 19 311T0 378V395Q0 449 38 487T131 526T224 488T263 395V378ZM230
148Q230 189 201 218T132 247T62 218T33 148V132Q33 91 62 62T131 33T201 62T230 132V148ZM91 280T131 280T201 308T230 378V395Q230 436 201 464T132 493T62 465T33 395V378Q33 337 62 309Z" />
<glyph unicode="9" glyph-name="nine" horiz-adv-x="334" d="M77 526T131 526T224 488T263 395V132Q263 77 225 39T132 0T39 38T0 132H33Q33 91 62 62T131 33T201 62T230 132V242Q191 197 132 197Q77 197 39 235T0 329V395Q0 449 38 487ZM91 230T131 230T201 259T230
329V395Q230 436 201 464T132 493T62 465T33 395V329Q33 288 62 259Z" />
<glyph unicode=":" glyph-name="colon" horiz-adv-x="119" d="M0 214T0 238T24 263T49 239T25 214ZM0 0T0 24T24 49T49 25T25 0Z" />
<glyph unicode=";" glyph-name="semicolon" horiz-adv-x="138" d="M18 216T18 240T43 265T68 241T43 216ZM34 -80H0L27 51H61L34 -80Z" />
<glyph unicode="&lt;" glyph-name="less" horiz-adv-x="334" d="M263 47V0L0 263L263 526V480L47 263L263 47Z" />
<glyph unicode="=" glyph-name="equal" horiz-adv-x="333" d="M0 230V263H263V230H0ZM0 132V165H263V132H0Z" />
<glyph unicode="&gt;" glyph-name="greater" horiz-adv-x="333" d="M0 480V526L263 263L0 0V47L217 263L0 480Z" />
<glyph unicode="?" glyph-name="question" horiz-adv-x="333" d="M77 526T131 526T224 488T263 395T225 302T132 263Q118 263 109 254T99 230V99H66V230Q66 255 82 273Q101 296 132 296Q172 296 201 325T230 395T201 464T132 493T62 465T33 395H0Q0 449 38 487ZM66
0V49H99V0H66Z" />
<glyph unicode="@" glyph-name="at" horiz-adv-x="630" d="M537 56Q527 34 508 19T465 0Q457 -1 450 -1Q447 -1 444 -1Q431 0 418 5Q390 17 381 47Q377 42 373 38Q334 -1 280 -1T187 37T148 131V197Q148 251 186 289T280 328Q339 328 378 284V328H411V183V145V65Q411
44 430 35Q440 32 450 32Q487 32 505 63Q524 106 526 153Q526 159 526 164Q526 266 454 338T280 410T105 338T33 164T105 -11T280 -83Q326 -83 368 -67H438Q367 -116 280 -116Q164 -116 82 -34T0 163T82 361T279 443T477 361T559 164Q559 115 542 68Q542 68 542
68T541 67T541 66Q540 61 537 56ZM378 131V159V197Q378 237 350 266T280 295T210 266T181 197V131Q181 90 210 61T280 32Q327 32 357 70Q378 97 378 131Z" />
<glyph unicode="A" glyph-name="A" horiz-adv-x="399" d="M34 0H0L164 526L329 0H295L164 416L34 0Z" />
<glyph unicode="B" glyph-name="B" horiz-adv-x="333" d="M181 281Q218 262 240 227T263 148Q263 87 220 44T115 0H0V526H115Q170 526 208 488T247 395Q247 359 229 329T181 281ZM115 33Q163 33 196 66T230 148T197 229T115 263V296Q156 296 185 325T214 395T185
464T115 493H33V33H115Z" />
<glyph unicode="C" glyph-name="C" horiz-adv-x="333" d="M91 33T131 33T201 62T230 132H263Q263 77 225 39T132 0T39 38T0 132V395Q0 449 38 487T131 526T224 488T263 395H230Q230 436 201 464T132 493T62 465T33 395V132Q33 91 62 62Z" />
<glyph unicode="D" glyph-name="D" horiz-adv-x="333" d="M0 526Q109 526 186 449T263 263T186 77T0 0V526ZM33 35Q117 47 173 112T230 263T174 414T33 491V35Z" />
<glyph unicode="E" glyph-name="E" horiz-adv-x="333" d="M263 493H33V280H197V247H33V33H263V0H0V526H263V493Z" />
<glyph unicode="F" glyph-name="F" horiz-adv-x="333" d="M263 493H33V280H197V247H33V0H0V526H263V493Z" />
<glyph unicode="G" glyph-name="G" horiz-adv-x="333" d="M132 263H263V132Q263 77 225 39T132 0T39 38T0 132V395Q0 449 38 487T131 526T224 488T263 395H230Q230 436 201 464T132 493T62 465T33 395V132Q33 91 62 62T131 33T201 62T230 132V230H132V263Z" />
<glyph unicode="H" glyph-name="H" horiz-adv-x="334" d="M230 526H263V0H230V247H33V0H0V526H33V280H230V526Z" />
<glyph unicode="I" glyph-name="I" horiz-adv-x="333" d="M263 493H148V33H263V0H0V33H115V493H0V526H263V493Z" />
<glyph unicode="J" glyph-name="J" horiz-adv-x="333" d="M230 526H263V132Q263 77 225 39T132 0T39 38T0 132H33Q33 91 62 62T131 33T201 62T230 132V526Z" />
<glyph unicode="K" glyph-name="K" horiz-adv-x="399" d="M329 526L132 263L329 0H288L103 247H33V0H0V526H33V280H103L288 526H329Z" />
<glyph unicode="L" glyph-name="L" horiz-adv-x="334" d="M33 33H263V0H0V527H33V33Z" />
<glyph unicode="M" glyph-name="M" horiz-adv-x="465" d="M197 263L395 526V0H362V428L197 208L33 428V0H0V526L197 263Z" />
<glyph unicode="N" glyph-name="N" horiz-adv-x="424" d="M321 526H354V0L33 428V0H0V526L321 99V526Z" />
<glyph unicode="O" glyph-name="O" horiz-adv-x="333" d="M77 526T131 526T224 488T263 395V132Q263 77 225 39T132 0Q82 0 45 33T1 115H0V132V395Q0 449 38 487ZM230 132V395Q230 436 201 464T132 493T62 465T33 395V132Q33 91 62 62T131 33T201 62T230 132Z" />
<glyph unicode="P" glyph-name="P" horiz-adv-x="334" d="M132 526Q186 526 224 488T263 395T225 302T132 263H82V296H132Q172 296 201 325T230 395T201 464T132 493H33V0H0V526H132Z" />
<glyph unicode="Q" glyph-name="Q" horiz-adv-x="333" d="M263 395V132Q263 77 225 39L263 0H217L198 18Q168 0 132 0Q77 0 39 38T0 132V395Q0 449 38 487T131 526T224 488T263 395ZM230 132V395Q230 436 201 464T132 493T62 465T33 395V132Q33 91 62 62T131 33T201
62T230 132Z" />
<glyph unicode="R" glyph-name="R" horiz-adv-x="399" d="M152 265L329 0H289L92 296H132Q172 296 201 325T230 395T201 464T132 493H33V0H0V526H132Q186 526 224 488T263 395Q263 346 232 309T152 265Z" />
<glyph unicode="S" glyph-name="S" horiz-adv-x="399" d="M197 279Q253 276 291 236T329 140T291 44T197 0H0V33H189Q233 33 264 64T296 139T265 215T189 246H132V247Q76 250 38 290T0 386T38 482T132 526H263V493H140Q96 493 65 462T33 387T64 311T140 279H197Z" />
<glyph unicode="T" glyph-name="T" horiz-adv-x="333" d="M0 526H263V493H148V0H115V493H0V526Z" />
<glyph unicode="U" glyph-name="U" horiz-adv-x="333" d="M230 526H263V132Q263 77 225 39T132 0T39 38T0 132V526H33V132Q33 91 62 62T131 33T201 62T230 132V526Z" />
<glyph unicode="V" glyph-name="V" horiz-adv-x="399" d="M295 526H329L164 0L0 526H34L164 110L295 526Z" />
<glyph unicode="W" glyph-name="W" horiz-adv-x="515" d="M444 526L280 0L222 184L164 0L0 526H34L164 110L205 239L115 526H150L222 295L295 526H329L239 239L280 110L410 526H444Z" />
<glyph unicode="X" glyph-name="X" horiz-adv-x="440" d="M204 262L368 0H329L185 230L41 0H2L166 262L0 526H39L185 293L331 526H370L204 262Z" />
<glyph unicode="Y" glyph-name="Y" horiz-adv-x="465" d="M395 526L214 285V0H181V285L0 526H41L197 318L354 526H395Z" />
<glyph unicode="Z" glyph-name="Z" horiz-adv-x="438" d="M368 527L59 33H362V0H0L308 494H0V527H368Z" />
<glyph unicode="[" glyph-name="bracketleft" horiz-adv-x="153" d="M82 493H33V33H82V0H0V526H82V493Z" />
<glyph unicode="\" glyph-name="backslash" horiz-adv-x="336" d="M36 526L266 0H230L0 526H36Z" />
<glyph unicode="]" glyph-name="bracketright" horiz-adv-x="153" d="M0 33H49V493H0V526H82V0H0V33Z" />
<glyph unicode="_" glyph-name="underscore" horiz-adv-x="428" d="M0 0V33H358V0H0Z" />
<glyph unicode="a" glyph-name="a" horiz-adv-x="346" d="M263 66Q263 52 272 43T296 33V0Q274 0 257 13T233 48Q193 0 132 0Q77 0 39 38T0 132V197Q0 252 38 290T132 329Q191 329 230 284V329H263V66ZM91 33T131 33T201 62T230 132V197Q230 238 201 267T132 296T62
267T33 197V132Q33 91 62 62Z" />
<glyph unicode="b" glyph-name="b" horiz-adv-x="346" d="M0 33Q14 33 23 42T33 66V526H66V284Q105 329 164 329Q219 329 257 291T296 197V132Q296 77 258 39T164 0Q103 0 63 48Q57 27 40 14T0 0V33ZM66 132Q66 91 95 62T164 33T234 62T263 132V197Q263 238 234
267T165 296T95 267T66 197V132Z" />
<glyph unicode="c" glyph-name="c" horiz-adv-x="323" d="M236 104H273Q261 59 224 30T139 0Q81 0 41 40T0 139V190Q0 248 40 288T139 329Q186 329 223 300T273 225H236Q233 236 227 245Q213 268 190 281T139 294T88 281T50 245Q35 220 35 190V190V139Q35 109
50 84Q64 61 87 48T138 35T189 48T227 84Q233 93 236 104Z" />
<glyph unicode="d" glyph-name="d" horiz-adv-x="346" d="M263 66Q263 53 272 43T296 33V0Q274 0 257 13T233 48Q193 0 132 0Q77 0 39 38T0 132V198Q0 252 38 290T132 329Q191 329 230 285V527H263V66ZM91 33T131 33T201 62T230 132V198Q230 239 201 267T132 296T62
268T33 198V132Q33 91 62 62Z" />
<glyph unicode="e" glyph-name="e" horiz-adv-x="327" d="M81 329T138 329T236 289T277 191V139H35Q35 109 50 84Q64 62 87 49T138 35Q185 35 216 70H258Q240 38 208 19T138 0Q81 0 41 41T0 139V191Q0 248 40 288ZM35 174H242V191Q242 221 227 246Q213 268 190
281T139 295T88 282T50 246Q35 221 35 191V191V191V190V189V188V187V186V185V184V183V174Z" />
<glyph unicode="f" glyph-name="f" horiz-adv-x="182" d="M48 447Q33 423 33 395V296H132V263H33V0H0V395Q0 449 38 487T132 526V493Q106 493 84 481T48 447Z" />
<glyph unicode="g" glyph-name="g" horiz-adv-x="346" d="M233 281Q239 302 256 315T296 329V296Q282 296 273 287T263 263V-66Q263 -115 230 -153Q191 -197 132 -197Q77 -197 39 -159T0 -66H33Q33 -107 62 -135T131 -164T201 -136T230 -66V45Q191 0 132 0Q77
0 39 38T0 132V197Q0 252 38 290T132 329Q193 329 233 281ZM91 33T131 33T201 62T230 132V197Q230 238 201 267T132 296T62 267T33 197V132Q33 91 62 62Z" />
<glyph unicode="h" glyph-name="h" horiz-adv-x="314" d="M33 0H0V526H33V284Q72 329 132 329Q186 329 224 291T263 197V0H230V197Q230 238 201 267T132 296T62 267T33 197V0Z" />
<glyph unicode="i" glyph-name="i" horiz-adv-x="116" d="M33 66Q33 53 42 43T66 33V1Q39 1 20 20T0 66V330H33V66ZM0 346V395H33V346H0Z" />
<glyph unicode="j" glyph-name="j" horiz-adv-x="182" d="M99 -65V330H132V-65Q132 -120 94 -158T0 -197V-164Q26 -164 48 -152T84 -117Q99 -93 99 -65ZM99 346V395H132V346H99Z" />
<glyph unicode="k" glyph-name="k" horiz-adv-x="314" d="M263 0H217L33 184V0H0V526H33V244L190 329H259L48 215L263 0Z" />
<glyph unicode="l" glyph-name="l" horiz-adv-x="116" d="M33 66Q33 52 42 43T66 33V0Q39 0 20 19T0 66V526H33V66Z" />
<glyph unicode="m" glyph-name="m" horiz-adv-x="478" d="M428 222V0H394Q395 219 395 222Q395 253 373 274T321 296T269 275T247 222V0H214V222Q214 253 192 274T140 296T88 275T66 222V0H33V263Q33 277 24 286T0 296V329Q19 329 35 319T59 292Q91 329 140 329Q168
329 192 316T230 279Q245 302 269 315T321 329Q365 329 396 298T428 222Z" />
<glyph unicode="n" glyph-name="n" horiz-adv-x="331" d="M157 329Q208 329 245 292T282 204V0H251V204Q251 242 223 270T157 298T91 270T63 204V0H31V266Q31 279 22 288T0 298V329Q21 329 37 316T60 284Q98 329 157 329Z" />
<glyph unicode="o" glyph-name="o" horiz-adv-x="314" d="M77 329T131 329T224 291T263 197V132Q263 77 225 39T132 0T39 38T0 132V197Q0 252 38 290ZM97 33T131 33T192 54T227 107Q230 119 230 132V197Q230 210 227 222Q219 254 193 275T132 296T71 275T36 222Q33
210 33 197V132Q33 119 36 107Q44 75 70 54Z" />
<glyph unicode="p" glyph-name="p" horiz-adv-x="347" d="M33 263Q33 277 24 286T0 296V329Q22 329 39 316T63 281Q103 329 164 329Q219 329 257 291T296 197V132Q296 77 258 39T164 0Q105 0 66 45V-197H33V263ZM205 296T165 296T95 267T66 197V132Q66 91 95 62T164
33T234 62T263 132V197Q263 238 234 267Z" />
<glyph unicode="q" glyph-name="q" horiz-adv-x="347" d="M296 296Q282 296 273 287T263 263V-197H230V45Q191 0 132 0Q77 0 39 38T0 132V197Q0 252 38 290T132 329Q193 329 233 281Q239 302 256 315T296 329V296ZM230 197Q230 238 201 267T132 296T62 267T33
197V132Q33 91 62 62T131 33T201 62T230 132V197Z" />
<glyph unicode="r" glyph-name="r" horiz-adv-x="214" d="M66 197V0H33V263Q33 277 24 286T0 296V329Q22 329 39 316T63 281Q103 329 164 329V296Q124 296 95 267T66 197Z" />
<glyph unicode="s" glyph-name="s" horiz-adv-x="313" d="M164 197Q205 197 234 169T263 99T234 29T164 0H0V33H164Q192 33 211 52T230 98T211 145T164 164H82Q48 164 24 188T0 247T24 305T82 329H181V296H82Q62 296 48 282T33 247T47 212T82 197H164Z" />
<glyph unicode="t" glyph-name="t" horiz-adv-x="181" d="M36 107Q44 75 70 54T132 33V0Q77 0 39 38T0 132V526H33V329H132V296H33V132Q33 119 36 107Z" />
<glyph unicode="u" glyph-name="u" horiz-adv-x="314" d="M230 329H263V132Q263 77 225 39T132 0T39 38T0 132V329H33V132Q33 119 36 107Q44 75 70 54T131 33T192 54T227 107Q230 119 230 132V329Z" />
<glyph unicode="v" glyph-name="v" horiz-adv-x="313" d="M228 329H263L132 0L0 329H35L132 89L228 329Z" />
<glyph unicode="w" glyph-name="w" horiz-adv-x="413" d="M362 329L230 0L181 123L132 0L0 329H35L132 89L163 168L99 329H134L181 212L228 329H263L199 168L230 89L326 329H362Z" />
<glyph unicode="x" glyph-name="x" horiz-adv-x="355" d="M304 329L173 164L304 0H262L152 138L43 0H1L131 164L0 329H42L152 190L262 329H304Z" />
<glyph unicode="y" glyph-name="y" horiz-adv-x="349" d="M53 -197L132 0L0 330H35L149 45L263 330H299L88 -197H53Z" />
<glyph unicode="z" glyph-name="z" horiz-adv-x="355" d="M305 329L68 33H305V0H0L237 296H0V329H305Z" />
<glyph unicode="|" glyph-name="bar" horiz-adv-x="103" d="M0 0V526H33V0H0Z" />
</font>
</defs>
</svg>
